<svg xmlns="http://www.w3.org/2000/svg" viewBox="5 61 190 59" enable-background="new 5 61 190 59"><g fill="#fff"><path d="m41.1 61.2v25.7c0 0-.3 5.9 6.8 5.9 0 0 4.1-.3 4.1-1.2 0-.9-.6-3.6-.6-3.6s-1.2.6-2.1.6c-.9 0-3 .5-3-2 0-2.5 0-25.4 0-25.4h-5.2"/><path d="m55.7 70.5h5.5v22.2h-5.5z"/></g><path d="m61.6 64.4c0 1.7-1.4 3.2-3.2 3.2-1.7 0-3.1-1.4-3.1-3.2s1.4-3.1 3.1-3.1c1.8 0 3.2 1.4 3.2 3.1" fill="#1b80a7"/><g fill="#fff"><path d="m78.1 70c-5 0-6.8 3.4-6.8 3.4v-12.2h-5.1v31.3h4.2c0 0 .2-2.9.6-3.1 0 0 2 3.1 6.7 3.1 3.7 0 10.3-1.8 10.3-10.8.1-9-4.9-11.7-9.9-11.7m-1.4 18.6c-3 0-4.8-1.5-5-5.1v-3.8c.2-3.5 2.1-5.1 5-5.1 3.1 0 5.7 3.1 5.7 7 0 3.9-2.5 7-5.7 7"/><path d="m105.5 71.1l-.6 3.6c-9.2-1.5-8.6 7.1-8.6 8.9 0 1.8 0 9 0 9h-4.9v-21.5h4.3v3.2c.1 0 4.1-5.3 9.8-3.2"/><path d="m125.8 88.1c0-.9.1-11.8.1-11.8s-.5-6-8.8-6c-7.4 0-9.2 2.2-9.2 2.2l1.9 3c0 0 9.7-3.7 11.3 1.6v2.7c0 0-4.7-1.2-9.4 0-5.6 1.3-5.2 6.8-5.2 6.8s-.5 6 7.9 6.1c0 0 4.1 0 6.7-2.6 0 0 .7 2.6 3.9 2.6 1.5 0 3.6 0 3.6 0v-3.9c-.1-.2-2.8.1-2.8-.7m-9.8.9c-4.1 1.1-4-3.3-4-3.3s.4-2.7 3.3-3.3c2.1-.4 5.3.6 5.3.6.1 2.2-.5 4.8-4.6 6"/><path d="m156.9 70.2c-6.5 0-11.2 5-11.2 11.2 0 6.2 4.7 11.2 11.2 11.2 6.5 0 11.2-5 11.2-11.2 0-6.2-4.7-11.2-11.2-11.2m0 17.9c-3.5 0-5.7-3-5.7-6.8 0-3.7 2.2-6.8 5.7-6.8 3.5 0 5.7 3 5.7 6.8.1 3.8-2.2 6.8-5.7 6.8"/></g><path d="m11.7 61.1c-3.7 0-6.7 2.9-6.7 6.5v24.8h24c3.7 0 6.3-3.8 6.3-7.5v-23.8h-23.6m8.6 20.4c-2.2 0-4-1.8-4-4 0-2.2 1.8-4 4-4 2.2 0 4 1.8 4 4 0 2.2-1.8 4-4 4" fill="#1b80a7"/><g fill="#fff"><path d="m143.7 74.6v-3.8h-6c0-3.3 0-6.3 0-6.3h-5.1v6.3h-4.1v3.8h4.1v12.2c0 0-.3 5.9 6.8 5.9 0 0 4-.3 4-1.2 0-.9-.6-3.6-.6-3.6s-1.2.6-2.1.6c-.9 0-3 .4-3-2 0-1.2 0-7 0-11.9h6"/><path d="m170.4 61.6h-1.8v-.6h4.3v.6h-1.8v5.1h-.7v-5.1"/><path d="m178.4 64.2c0-.8-.1-1.8-.1-2.5-.2.7-.4 1.4-.7 2.2l-1 2.8h-.6l-.9-2.7c-.3-.8-.5-1.6-.7-2.2 0 .7-.1 1.7-.1 2.5l-.2 2.5h-.7l.4-5.8h1l1 2.8c.2.7.4 1.3.6 1.9.2-.6.4-1.2.6-1.9l1-2.8h1l.4 5.8h-.7l-.3-2.6"/><path d="m104 107.2c-1.4 0-2.4-.4-2.4-.4v-1.2c0 0 1.5.5 2.4.5.8 0 1.6-.1 1.6-1.1 0-.7-.5-.9-1.2-1.1l-.6-.2c-.8-.2-2.2-.6-2.2-2.2 0-1.8 1.5-2.3 3-2.3 1.4 0 2.2.5 2.2.5v1.2c0 0-1-.5-2.2-.5-1 0-1.6.2-1.6 1 0 .7.6.9 1.2 1.1l.8.2c.9.2 2 .8 2 2.2 0 1.8-1.4 2.3-3 2.3"/><path d="m112.1 107.2c-1.5 0-3.6-.5-3.6-4 0-3.4 2.1-4 3.6-4 1.4 0 3.6.5 3.6 4 0 3.5-2.1 4-3.6 4m0-7c-.8 0-2.1.2-2.1 2.9 0 2.7 1.5 2.9 2.1 2.9.7 0 2.1-.3 2.1-2.9.1-2.7-1.3-2.9-2.1-2.9"/><path d="m117.6 96.8h1.5v10.3h-1.5z"/><path d="m126.2 107l-.1-1c0 0-.9 1.2-2.5 1.2-1.2 0-2.5-.4-2.5-2.4 0-2.1 2-2.5 3.2-2.5h1.7v-.7c0-1-.6-1.2-1.6-1.2-1.2 0-2.7.5-2.7.5v-1.2c0 0 1.3-.5 2.9-.5 1.7 0 2.9.6 2.9 2.7v5.2h-1.3zm-.1-3.9h-1.4c-1.3 0-2.1.4-2.1 1.6 0 1 .6 1.3 1.4 1.3 1.1 0 2.1-1 2.1-1v-1.9"/><path d="m132.8 100.5c-.9 0-1.5.9-1.5.9v5.6h-1.5v-7.7h1.1l.2 1.1c0 0 .5-1.2 1.8-1.2.7 0 1 .2 1 .2v1.3c.1 0-.4-.2-1.1-.2"/><path d="m145.5 107h-2l-1.2-4.1c-.3-1.1-.8-2.9-.8-2.9s-.5 1.8-.8 2.9l-1.2 4.1h-2l-2-7.7h1.7l.9 4.4c.2 1 .5 2.6.5 2.6s.3-1.6.6-2.6l1.3-4.4h2.1l1.3 4.4c.3 1 .6 2.6.6 2.6s.2-1.5.5-2.6l.9-4.4h1.6l-2 7.7"/><path d="m149.3 99.3h1.5v7.8h-1.5z"/><path d="m158.5 107v-5.3c0-1-.4-1.3-1.4-1.3-1.3 0-2.5 1-2.5 1v5.6h-1.5v-7.7h1.1l.3 1.1c0 0 1.3-1.2 2.9-1.2 1.4 0 2.5.6 2.5 2.6v5.3h-1.4z"/><path d="m167.5 107l-.2-1c0 0-.8 1.1-2.5 1.1-1.2 0-3.2-.5-3.2-4 0-3.5 2.5-4 3.5-4 1.4 0 2 .8 2 .8v-3.2h1.5v10.3h-1.1m-.4-5.9c0 0-.8-.8-1.9-.8-1.1 0-2.2.4-2.2 2.8 0 2.5 1.1 2.9 2 2.9 1 0 2-.9 2-.9v-4z"/><path d="m173.1 107.2c-1.4 0-2.4-.4-2.4-.4v-1.2c0 0 1.5.5 2.4.5.8 0 1.6-.1 1.6-1.1 0-.7-.5-.9-1.2-1.1l-.6-.2c-.8-.2-2.2-.6-2.2-2.2 0-1.8 1.5-2.3 3-2.3 1.4 0 2.2.5 2.2.5v1.2c0 0-1-.5-2.2-.5-1 0-1.6.2-1.6 1 0 .7.6.9 1.2 1.1l.8.2c.9.2 2 .8 2 2.2-.1 1.8-1.4 2.3-3 2.3"/></g><g fill="#f89c1e"><path d="m182.8 94.6c.1 0 .1 0 .2-.1 1.5-.4 2.9-1 4.3-1.6 1.4-.6 2.8-1.3 4-2.3 1.2-1 2.2-2.3 2.8-4 .1-.2.2-.6.3-.8-1.9 2.7-9.6 2.9-9.6 2.9l1.8-1.7c-7.3 0-12.4 3.1-14.7 4.8 3 .3 5.7 1.6 7.8 3.5 1-.2 2.1-.4 3.1-.7"/><path d="m194.9 94.4c0 0-7.1-.5-14.5 1.8 1 1 1.8 2.2 2.4 3.5 3.9-2.2 9.3-5 12.1-5.3"/><path d="m183.3 100.8c.5 1.2.8 2.4.9 3.7l6.8-6.9-7.7 3.2"/><path d="m186.9 104.2c0-.1 0-.1 0-.2 0 0 0 0-.1 0 0 0 0 0 .1 0 0 0 .1-.1.1-.1 0-.1 0-.1-.1-.1 0 0-.1 0-.1 0h-.2v.5h.1v-.2h.1c0 0 .1 0 .1 0 0 0 0 .1 0 .1m-.3-.4c.1 0 .2 0 .2 0 0 0 0 0 0 .1 0 0 0 .1 0 .1 0 0 0 0-.1 0h-.1v-.2"/><path d="m187 103.6c-.1-.1-.2-.1-.3-.1-.1 0-.2 0-.3.1-.1.1-.1.2-.1.3 0 .1 0 .2.1.3.1.1.2.1.3.1.1 0 .2 0 .3-.1.1-.1.1-.2.1-.3 0-.1 0-.2-.1-.3m-.3.7c-.1 0-.2 0-.3-.1-.1-.1-.1-.2-.1-.3 0-.1 0-.2.1-.3.1-.1.2-.1.3-.1.1 0 .2 0 .3.1.1.1.1.2.1.3 0 .1 0 .2-.1.3-.1.1-.2.1-.3.1"/></g></svg>