<?xml version="1.0" encoding="utf-8"?>
<!-- Generator: Adobe Illustrator 19.1.0, SVG Export Plug-In . SVG Version: 6.00 Build 0)  -->
<svg version="1.1" id="Layer_1" xmlns="http://www.w3.org/2000/svg" xmlns:xlink="http://www.w3.org/1999/xlink" x="0px" y="0px"
	 viewBox="0 0 842 499.4" style="enable-background:new 0 0 842 499.4;" xml:space="preserve">
<style type="text/css">
	.st0{fill:#BF1E54;}
	.st1{fill:#DC95C0;}
	.st2{fill:#2A255F;}
</style>
<polygon class="st0" points="22.6,249.7 70.8,138.2 388.8,17.6 496.2,65.8 382.2,475.8 "/>
<polygon class="st1" points="496.2,115.1 426,347.5 503.9,475.8 817.4,295.5 767,187.5 "/>
<path class="st2" d="M842,295.2c0-0.5,0-1.1-0.1-1.6c-0.1-0.5-0.2-1-0.3-1.5c-0.1-0.4-0.1-0.8-0.3-1.3c-0.3-0.8-0.6-1.5-1-2.2
	c-0.1-0.1-0.1-0.3-0.2-0.4L778.7,181c-1-1.7-2.3-3.1-3.7-4.3c0,0-0.1,0-0.1,0c-1.5-1.2-3.2-2-5-2.5c0,0,0,0,0,0l-260.3-70.6
	l9.9-33.7c0-0.1,0-0.2,0-0.2c0.4-1.5,0.6-3,0.5-4.6c0-0.2,0-0.5,0-0.7c-0.1-1.2-0.3-2.4-0.8-3.7c-0.1-0.2-0.2-0.4-0.3-0.6
	c-0.1-0.2-0.2-0.5-0.3-0.7c-0.7-1.4-1.5-2.7-2.6-3.7c-0.1-0.1-0.2-0.2-0.3-0.3c-1.2-1.1-2.5-2.1-4-2.8c0,0-0.1-0.1-0.1-0.1
	L399.2,1.3c-0.9-0.4-1.8-0.7-2.7-0.9c-0.5-0.1-1-0.1-1.5-0.2C394.5,0.1,394,0,393.6,0c-0.4,0-0.7,0.1-1.1,0.1c-0.6,0-1.2,0-1.7,0.1
	c0,0,0,0,0,0c-0.9,0.2-1.8,0.4-2.7,0.7L60.7,123.2c0,0-0.1,0.1-0.1,0.1c-1.7,0.7-3.3,1.6-4.7,2.9c0,0-0.1,0.1-0.1,0.1
	c-1.3,1.2-2.4,2.8-3.2,4.5L1.3,243.1c-0.7,1.5-1.1,3.2-1.3,4.9c0,0.1,0,0.2-0.1,0.3c-0.1,1.5,0.1,3,0.5,4.5c0.1,0.2,0.1,0.5,0.2,0.7
	c0.1,0.2,0.1,0.5,0.2,0.7c0.3,0.9,0.9,1.7,1.4,2.5c0.2,0.4,0.4,0.9,0.7,1.3c1,1.3,2.2,2.4,3.5,3.3c0.1,0,0.1,0.1,0.1,0.2
	l367.7,235.6c0.2,0.1,0.4,0.1,0.5,0.2c0.5,0.3,1.1,0.6,1.6,0.8c0.3,0.1,0.6,0.3,1,0.4c0.3,0.1,0.6,0.3,1,0.3
	c1.2,0.3,2.4,0.5,3.7,0.5c0,0,0,0,0,0h0l0,0l0,0h0c0,0,0,0,0,0c0.5,0,1.1,0,1.6-0.1c0.8-0.1,1.5-0.3,2.2-0.5c0.2,0,0.3,0,0.5-0.1
	c0.2-0.1,0.4-0.1,0.6-0.2c0.1,0,0.1,0,0.2,0c0.2-0.1,0.4-0.2,0.6-0.3c0.7-0.3,1.3-0.6,1.9-1c0.2-0.1,0.3-0.2,0.5-0.3c0,0,0,0,0.1,0
	c0.2-0.1,0.3-0.3,0.5-0.5c0.4-0.3,0.8-0.7,1.2-1c0.2-0.2,0.4-0.4,0.6-0.6c0.1-0.1,0.3-0.3,0.4-0.5c0.3-0.3,0.6-0.7,0.8-1.1
	c0.2-0.3,0.5-0.6,0.7-1c0.1-0.2,0.2-0.3,0.3-0.5c0.2-0.3,0.3-0.6,0.5-1c0.2-0.4,0.4-0.9,0.5-1.3c0.1-0.2,0.2-0.3,0.2-0.5
	c0,0,0-0.1,0-0.1l33.3-113.2L493.3,487c0,0.1,0.1,0.1,0.2,0.2c0.2,0.3,0.3,0.6,0.5,0.8c0.3,0.5,0.7,0.9,1,1.3
	c0.2,0.3,0.5,0.6,0.7,0.9c0.3,0.3,0.7,0.6,1,0.9c0.2,0.1,0.3,0.3,0.5,0.4c0,0,0,0,0.1,0c0.2,0.1,0.3,0.3,0.5,0.4c0,0,0.1,0,0.1,0
	c1.1,0.7,2.2,1.2,3.4,1.6c0.2,0.1,0.4,0.2,0.6,0.2c0,0,0.1,0,0.1,0.1c0.1,0,0.2,0,0.4,0.1c1.1,0.3,2.2,0.5,3.4,0.5l0,0
	c0.3,0,0.6,0,0.8,0c0.7,0,1.4-0.2,2.1-0.3c0.2,0,0.5,0,0.7-0.1c1.1-0.3,2.1-0.7,3-1.2c0.1-0.1,0.3-0.2,0.4-0.2
	c0.1,0,0.1-0.1,0.2-0.1L834.7,308c0.4-0.2,0.7-0.5,1.1-0.8c0.2-0.2,0.5-0.3,0.7-0.5c1.1-0.9,2-1.9,2.8-3c0.1-0.2,0.2-0.4,0.3-0.6
	c1.3-2.1,2.2-4.4,2.3-6.9C842,296,842,295.6,842,295.2z M728.3,193.1l-64,36.7l-36.7-64L728.3,193.1z M628.7,226.4L528,199.1
	l64.1-36.7L628.7,226.4z M73,156.1l67.2,30.6l-97.8,36.5L73,156.1z M467.5,64.5L369.7,101l30.6-67.2L467.5,64.5z M329.5,147.1
	l31.8,281.5L200.8,195.2L329.5,147.1z M206,162.1L236.7,95l67.2,30.6L206,162.1z M334.7,107.7L267.5,77l97.8-36.5L334.7,107.7z
	 M171,168.8l-67.2-30.6l97.8-36.5L171,168.8z M172.6,205.7l156.8,228l-282.5-181L172.6,205.7z M388.6,411.6l-31.1-275l125.8-47
	L388.6,411.6z M440.9,337l35.4-120.5L487.9,419L440.9,337z M495.7,184.1l-6.5-11.2l12.2-41.3l58.3,15.8L495.7,184.1z M505.9,223.3
	l129.6,35.2L518,435.3L505.9,223.3z M552.2,436.4l113-169.9l124.6,33.8L552.2,436.4z M696.6,244.8l64-36.7l36.7,64L696.6,244.8z"/>
<g>
</g>
<g>
</g>
<g>
</g>
<g>
</g>
<g>
</g>
<g>
</g>
<g>
</g>
<g>
</g>
<g>
</g>
<g>
</g>
<g>
</g>
<g>
</g>
<g>
</g>
<g>
</g>
<g>
</g>
</svg>
