<?xml version="1.0" standalone="no"?>
<!DOCTYPE svg PUBLIC "-//W3C//DTD SVG 20010904//EN"
 "http://www.w3.org/TR/2001/REC-SVG-20010904/DTD/svg10.dtd">
<svg version="1.0" xmlns="http://www.w3.org/2000/svg"
 width="1249.000000pt" height="1249.000000pt" viewBox="0 0 1249.000000 1249.000000"
 preserveAspectRatio="xMidYMid meet">
<metadata>
Created by potrace 1.11, written by Peter Selinger 2001-2013
</metadata>
<g transform="translate(0.000000,1249.000000) scale(0.100000,-0.100000)"
fill="#000000" stroke="none">
<path d="M8150 12454 c-269 -37 -571 -139 -812 -274 -471 -266 -873 -693
-1113 -1185 -157 -321 -189 -432 -406 -1410 -94 -423 -97 -434 -229 -939
l-102 -390 -50 -45 c-66 -60 -138 -111 -156 -111 -7 0 -281 145 -608 323 -505
273 -595 326 -600 347 -45 200 -116 294 -282 372 -111 53 -234 53 -347 -1
-103 -48 -916 -502 -981 -547 -121 -85 -193 -215 -201 -364 -3 -48 -1 -102 6
-125 10 -36 9 -41 -13 -60 -13 -11 -40 -49 -59 -85 l-36 -65 59 -106 60 -105
76 -24 c53 -17 81 -32 94 -50 18 -25 18 -27 -2 -71 -63 -140 -119 -333 -137
-474 -20 -163 -22 -213 -11 -339 5 -71 8 -131 6 -133 -2 -3 -73 32 -158 76
-273 143 -455 187 -733 178 -171 -5 -262 -24 -409 -83 -255 -102 -532 -367
-699 -668 l-58 -105 58 -113 58 -113 63 0 63 0 27 -50 27 -50 55 3 55 4 30
-52 30 -51 61 3 62 3 28 -53 29 -54 57 7 57 6 28 -50 28 -51 63 0 63 0 21 -51
22 -51 64 4 64 4 26 -53 26 -53 61 6 61 6 23 -51 24 -51 64 0 63 0 25 -50 25
-50 63 0 62 0 28 -51 c25 -45 31 -50 55 -45 68 14 177 9 227 -11 l50 -21 60
112 c68 125 169 279 222 337 46 51 164 139 232 173 47 24 159 55 200 56 8 0
-22 -25 -67 -56 -101 -69 -155 -129 -182 -203 -53 -140 -48 -218 19 -281 47
-44 1887 -1044 1952 -1061 41 -11 50 -10 93 10 43 21 50 30 96 127 57 120 36
111 219 93 l116 -12 105 -62 c297 -177 645 -363 756 -405 109 -40 102 -44 719
304 181 102 330 184 332 183 1 -1 -12 -68 -29 -147 -26 -124 -30 -168 -32
-305 -1 -146 1 -164 21 -208 50 -107 213 -240 372 -304 116 -47 172 -77 198
-105 23 -24 966 -1891 985 -1951 6 -18 11 -123 12 -242 1 -208 1 -211 29 -269
50 -108 143 -198 410 -399 222 -167 281 -195 470 -223 150 -22 397 -15 509 15
129 34 293 119 521 272 637 426 923 653 1010 801 77 132 76 358 -3 553 -63
157 -1020 2062 -1216 2420 -186 342 -473 903 -684 1341 l-77 161 966 543 c531
299 994 561 1028 584 82 52 98 84 90 182 -6 78 -17 109 -51 137 -53 45 -148
104 -257 161 l-118 62 102 100 c118 115 281 306 353 414 132 197 252 433 327
640 128 357 171 598 169 961 -1 258 -11 356 -52 520 -129 512 -368 898 -728
1177 -130 100 -155 114 -1117 637 -1209 658 -1185 646 -1424 706 -228 58 -517
74 -751 43z"/>
</g>
</svg>
